<svg width="66" height="71" viewBox="0 0 66 71" fill="none" xmlns="http://www.w3.org/2000/svg">
<path d="M33.8302 28.2822C40.4486 28.8851 42.9458 29.1873 46.3021 30.2142C49.6584 31.2412 54.8948 34.3712 53.8659 35.846L54.9347 35.3253C58.0589 33.7906 61.0872 34.0647 63.4167 36.1064C64.8143 37.3259 65.6502 39.0387 65.9379 41.2037C66.212 43.3413 65.568 45.8078 64.2114 47.8906C63.4578 49.069 60.868 51.5903 59.4155 52.5632C56.3324 54.6597 52.5505 56.1944 48.289 57.085C47.2476 57.3043 47.1243 57.3591 46.7132 57.8798C45.9047 58.8938 44.7811 60.0585 43.4931 61.2369L42.2324 62.3879L42.8354 63.0731C43.8219 64.1556 43.959 65.334 43.2464 66.5261C41.8625 68.883 36.6829 70.678 30.503 70.9521C20.7194 71.3905 12.813 68.7048 12.8404 64.9503C12.8404 64.1145 13.1144 63.4705 13.7585 62.799L14.1695 62.3605L13.7036 61.9769C12.7034 61.1684 11.0316 59.483 10.0451 58.3046C5.37247 52.7413 2.83749 45.4515 2.399 36.3119C2.31679 34.5717 2.33049 34.4209 2.61824 33.8043C2.96081 33.0644 3.9474 32.1326 4.98879 31.5297C7.70191 29.9813 12.8404 28.8303 19.8835 28.2C22.9255 27.9259 30.5279 27.9807 33.8302 28.2822Z" fill="black"/>
<path d="M25.8073 0.160601C26.5336 1.95564 26.835 3.3396 26.835 5.02502C26.835 7.27225 26.3417 8.76583 24.6426 11.5886C23.5327 13.4247 23.0942 14.5346 22.8613 16.0282C22.4913 18.4536 23.286 20.9337 25.0263 22.7425C25.6292 23.3591 27.6435 24.8116 27.7531 24.7019C27.7805 24.6745 27.5201 24.099 27.1776 23.4276C25.4647 20.0431 25.6292 16.7955 27.6572 13.3699C28.7671 11.4926 29.5755 9.75242 29.7811 8.75213C30.384 5.90199 29.6714 3.43552 27.6709 1.43494C26.5747 0.325031 25.6018 -0.318991 25.8073 0.160601Z" fill="#359397"/>
<path d="M16.2154 0.160601C16.9416 1.95564 17.2431 3.3396 17.2431 5.02502C17.2431 7.27225 16.7498 8.76583 15.0507 11.5886C13.9408 13.4247 13.5023 14.5346 13.2693 16.0282C12.8994 18.4536 13.6941 20.9337 15.4343 22.7425C16.0373 23.3591 18.0515 24.8116 18.1612 24.7019C18.1886 24.6745 17.9282 24.099 17.5857 23.4276C15.8728 20.0431 16.0373 16.7955 18.0652 13.3699C19.1752 11.4926 19.9836 9.75242 20.1891 8.75213C20.7921 5.90199 20.0795 3.43552 18.0789 1.43494C16.9827 0.325031 16.0099 -0.318991 16.2154 0.160601Z" fill="#359397"/>
<path d="M35.3992 0.160601C36.1255 1.95564 36.4269 3.3396 36.4269 5.02502C36.4269 7.27225 35.9336 8.76583 34.2345 11.5886C33.1246 13.4247 32.6861 14.5346 32.4532 16.0282C32.0832 18.4536 32.878 20.9337 34.6182 22.7425C35.2211 23.3591 37.2354 24.8116 37.345 24.7019C37.3724 24.6745 37.1121 24.099 36.7695 23.4276C35.0567 20.0431 35.2211 16.7955 37.2491 13.3699C38.359 11.4926 39.1674 9.75242 39.373 8.75213C39.9759 5.90199 39.2634 3.43552 37.2628 1.43494C36.1666 0.325031 35.1937 -0.318991 35.3992 0.160601Z" fill="#359397"/>
<path d="M35.92 31.7628C41.8943 32.1465 46.9506 33.1605 49.2389 34.4348C50.1433 34.9555 50.8284 35.6406 50.7599 35.9832C50.6914 36.3395 49.417 37.2164 48.4305 37.5727L47.4987 37.929L46.7313 37.5864C43.8949 36.3258 38.8112 35.3118 33.4535 34.9144C31.0145 34.7363 25.369 34.7363 22.971 34.9144C17.6407 35.2981 13.0093 36.2161 10.1317 37.422L9.00809 37.9016L8.26815 37.5864C7.18565 37.1479 6.28128 36.5998 6.03463 36.2161C5.76058 35.7914 5.93871 35.5036 6.8979 34.8733C9.22734 33.3386 15.1743 32.1602 22.834 31.7217C24.7798 31.6121 33.9742 31.6395 35.92 31.7628ZM60.3791 39.0115C61.8864 39.7788 62.4619 40.7243 62.5441 42.5878C62.5989 43.7252 62.5578 44.0266 62.2564 44.9036C61.7357 46.3835 61.1328 47.3152 59.831 48.617C58.543 49.905 57.3097 50.782 55.2544 51.8508C53.98 52.5085 51.6506 53.3855 50.5407 53.6184L50.1022 53.7143L50.5955 52.6318C51.8287 49.9598 52.966 46.3012 53.4593 43.41C53.5826 42.6975 53.706 41.9712 53.7334 41.8068C53.9252 40.9298 55.7202 39.3677 57.1179 38.8607C58.0908 38.5182 59.5159 38.5867 60.3791 39.0115ZM50.3762 41.2313C49.924 44.7254 48.7593 48.7129 47.3069 51.7001C44.2512 57.9759 39.7156 61.9222 33.8509 63.4158C28.2191 64.8546 22.1763 63.9228 17.4626 60.8808C11.7486 57.1811 8.06262 50.7409 6.52793 41.7794C6.3772 40.9161 6.28128 40.1899 6.30869 40.1625C6.33609 40.1351 6.84308 40.2721 7.4323 40.4639C8.73404 40.8887 11.1594 41.5053 13.0367 41.889C23.6425 44.0266 40.3733 43.4374 48.7319 40.6147C49.6774 40.2995 50.4584 40.0529 50.4858 40.0666C50.5133 40.0803 50.4584 40.6147 50.3762 41.2313ZM18.5862 65.526C21.4912 66.7181 24.1906 67.1703 28.4521 67.1703C33.1932 67.1703 35.783 66.6496 39.5238 64.9642C39.8115 64.8409 39.7019 65.3479 39.3456 65.8275C38.4687 66.9785 35.7282 67.9514 32.1792 68.3487C30.2882 68.568 24.6702 68.4583 23.1766 68.1706C20.7512 67.7047 19.0795 67.1018 18.0655 66.3482C17.4215 65.8549 16.7775 64.7586 17.2571 64.9642C17.3393 65.0053 17.9422 65.2519 18.5862 65.526Z" fill="white"/>
<path d="M8.93254 37.9607C15.7501 33.7877 38.5827 33.3357 47.5739 37.9607C37.8933 41.2541 15.1059 41.2104 8.93254 37.9607Z" fill="#359397"/>
<path d="M18.5841 36.7517C17.5466 35.6583 16.3905 35.0432 14.9973 34.8479C14.6713 34.8089 14.0883 34.7894 13.7128 34.8187C11.1241 34.9846 9.20718 36.4198 8.35743 38.8019L8.08077 39.583L8.05112 42.7266L8.02148 45.88H6.76662C5.71925 45.88 5.44259 45.9191 5.06712 46.0851C4.49403 46.3389 0.502182 50.2343 0.235401 50.8103C0.0575466 51.1813 0.0476646 51.6011 0.00814247 58.7671C-0.0116196 65.152 -0.00174141 66.3821 0.116827 66.675C0.37373 67.2999 0.828247 67.8173 1.34205 68.1004L1.85585 68.3835L6.54924 68.4616C9.12813 68.5007 12.1714 68.5202 13.3176 68.5105L15.3926 68.4812L15.9163 68.198C16.5091 67.8661 16.8747 67.4365 17.1316 66.7629C17.2996 66.3431 17.3193 65.9819 17.3193 63.8243L17.3292 54.2273L17.3284 54.1911C17.2699 51.4347 17.2689 51.3843 17.0229 50.9275C16.6573 50.2538 12.8433 46.3877 12.3098 46.1534C12.0034 46.0167 11.5391 45.9581 10.5905 45.9093L9.29611 45.8507L9.33563 42.9121C9.37515 40.2273 9.39491 39.9149 9.59253 39.3291C10.047 37.9623 11.0549 36.8982 12.3592 36.4002C13.1595 36.0976 14.691 36.0488 15.442 36.2929C16.3411 36.5955 16.8352 36.8982 17.4873 37.5425C18.4655 38.4993 18.9497 39.7001 19.1473 41.5844H20.4805L20.3923 40.9791C20.1354 39.0265 19.6512 37.8744 18.5841 36.7517Z" fill="black"/>
<path d="M3.57941 49.322L1.47479 51.4015V58.7432V66.0947L1.75146 66.3974C1.93919 66.6024 2.16645 66.7293 2.46288 66.7781C2.7099 66.8269 5.62473 66.866 8.95457 66.8757C15.5055 66.8953 15.1992 66.9148 15.5846 66.3681C15.802 66.0654 15.8415 63.7907 15.7526 56.7321L15.6834 51.4211L13.648 49.3806L11.6224 47.3499H10.4565H9.28064V48.1798C9.28064 48.9999 9.28064 49.0096 9.52766 49.0096C9.85372 49.0096 10.2687 49.4197 10.2687 49.7418C10.2687 49.8785 10.16 50.1031 10.0217 50.23C9.8142 50.4448 9.69563 50.4741 9.11266 50.4643C7.42304 50.4448 7.00805 50.2788 7.00805 49.6442C7.00805 49.2732 7.24519 49.0389 7.6503 48.9803L7.94673 48.9413L7.97637 48.1505L8.00601 47.3597L7.53173 47.3206C7.27483 47.3011 6.75115 47.2816 6.3658 47.2718L5.67414 47.2523L3.57941 49.322Z" fill="white"/>
<path fill-rule="evenodd" clip-rule="evenodd" d="M8.24026 55.9658C9.20417 54.5602 10.5931 53.7872 11.7134 53.3676C12.179 53.1924 12.658 53.0548 13.1456 52.9563C13.33 52.9192 13.5156 52.8891 13.7022 52.8661L13.7365 52.8625L13.7456 52.8608L13.7494 52.8611L13.7512 52.8607L14.1036 52.8286L14.2269 53.1593L14.2287 53.1637L14.2325 53.1742L14.2475 53.2138L14.2962 53.358C14.5376 54.103 14.7076 54.8691 14.804 55.6462C14.972 57.0365 14.9258 58.8545 13.9358 60.297C12.968 61.7071 11.6039 62.4416 10.5037 62.8226C10.0275 62.9878 9.53723 63.1095 9.03904 63.1864L8.89771 62.4319L11.7526 58.2699L10.9868 57.7472L8.65587 61.1458L7.82718 56.7216C7.93965 56.4559 8.07723 56.2033 8.24026 55.9658ZM7.14983 58.1413L7.77301 61.4683L6.00488 60.5292L5.56904 61.3448L7.99095 62.6318L8.12513 63.3481C7.79265 63.4145 7.45602 63.4581 7.11761 63.4785C6.26932 63.5273 5.13774 63.4335 4.18813 62.7852C3.22969 62.1302 2.69095 60.9712 2.39204 60.0552C2.21355 59.5028 2.08279 58.9361 2.00119 58.3614L1.99757 58.332L1.99587 58.3229L1.99644 58.3209L1.95516 57.9494L2.30815 57.8297L2.31179 57.829L2.31965 57.8256L2.34631 57.8169L2.44525 57.7861C2.94493 57.6393 3.45609 57.5348 3.97329 57.4736C4.87588 57.3722 6.09373 57.3878 6.99739 58.0325L7.04065 58.062L7.14983 58.1413Z" fill="#F29430"/>
</svg>
