<svg width="117" height="117" viewBox="0 0 117 117" fill="none" xmlns="http://www.w3.org/2000/svg">
<path d="M63.5944 49.2811C72.3186 50.0758 75.6104 50.4742 80.0346 51.8279C84.4589 53.1816 91.3613 57.3076 90.0051 59.2516L91.414 58.5652C95.5323 56.5422 99.5241 56.9035 102.595 59.5948C104.437 61.2024 105.539 63.4602 105.918 66.3141C106.279 69.1318 105.431 72.3831 103.642 75.1286C102.649 76.682 99.2351 80.0055 97.3205 81.2879C93.2564 84.0515 88.2711 86.0745 82.6537 87.2485C81.2809 87.5375 81.1184 87.6098 80.5765 88.2962C79.5108 89.6328 78.0297 91.1681 76.3318 92.7215L74.67 94.2387L75.4648 95.1419C76.7653 96.5688 76.9459 98.1222 76.0067 99.6936C74.1824 102.8 67.3547 105.167 59.2085 105.528C46.3119 106.106 35.8898 102.566 35.9259 97.6164C35.9259 96.5146 36.2872 95.6657 37.1361 94.7806L37.678 94.2026L37.0639 93.6969C35.7453 92.6312 33.5417 90.4095 32.2412 88.8561C26.0819 81.5227 22.7403 71.9135 22.1623 59.8657C22.0539 57.5718 22.072 57.3731 22.4513 56.5603C22.9028 55.5849 24.2033 54.3567 25.5761 53.5619C29.1525 51.5209 35.9259 50.0036 45.2101 49.1727C49.2199 48.8115 59.2413 48.8837 63.5944 49.2811Z" fill="black"/>
<path d="M53.0188 12.2117C53.9761 14.5779 54.3734 16.4022 54.3734 18.6239C54.3734 21.5862 53.7232 23.555 51.4834 27.2759C50.0204 29.6962 49.4424 31.1593 49.1353 33.1281C48.6476 36.3252 49.6953 39.5945 51.9892 41.9788C52.7839 42.7916 55.4391 44.7062 55.5836 44.5617C55.6198 44.5256 55.2766 43.767 54.825 42.8819C52.5672 38.4205 52.7839 34.1396 55.4572 29.624C56.9203 27.1494 57.986 24.8555 58.2569 23.5369C59.0516 19.7799 58.1124 16.5287 55.4753 13.8915C54.0303 12.4285 52.7478 11.5795 53.0188 12.2117Z" fill="#359397"/>
<path d="M40.3748 12.2117C41.3322 14.5779 41.7295 16.4022 41.7295 18.6239C41.7295 21.5862 41.0793 23.555 38.8395 27.2759C37.3765 29.6962 36.7985 31.1593 36.4914 33.1281C36.0037 36.3252 37.0513 39.5945 39.3453 41.9788C40.14 42.7916 42.7952 44.7062 42.9397 44.5617C42.9758 44.5256 42.6327 43.767 42.1811 42.8819C39.9233 38.4205 40.14 34.1396 42.8133 29.624C44.2763 27.1494 45.342 24.8555 45.613 23.5369C46.4077 19.7799 45.4685 16.5287 42.8313 13.8915C41.3863 12.4285 40.1039 11.5795 40.3748 12.2117Z" fill="#359397"/>
<path d="M65.6627 12.2117C66.62 14.5779 67.0174 16.4022 67.0174 18.6239C67.0174 21.5862 66.3671 23.555 64.1274 27.2759C62.6643 29.6962 62.0863 31.1593 61.7792 33.1281C61.2915 36.3252 62.3392 39.5945 64.6331 41.9788C65.4279 42.7916 68.0831 44.7062 68.2276 44.5617C68.2637 44.5256 67.9205 43.767 67.4689 42.8819C65.2111 38.4205 65.4279 34.1396 68.1011 29.624C69.5642 27.1494 70.6299 24.8555 70.9008 23.5369C71.6956 19.7799 70.7563 16.5287 68.1192 13.8915C66.6742 12.4285 65.3917 11.5795 65.6627 12.2117Z" fill="#359397"/>
<path d="M66.3492 53.8692C74.2245 54.3749 80.8895 55.7116 83.906 57.3914C85.0981 58.0778 86.0012 58.9809 85.9109 59.4325C85.8206 59.9021 84.1408 61.0581 82.8403 61.5277L81.612 61.9973L80.6005 61.5458C76.8616 59.884 70.1604 58.5474 63.0979 58.0236C59.8828 57.7888 52.441 57.7888 49.2801 58.0236C42.2538 58.5293 36.1486 59.7395 32.3555 61.329L30.8744 61.9612L29.899 61.5458C28.4721 60.9678 27.2799 60.2453 26.9548 59.7395C26.5936 59.1796 26.8284 58.8003 28.0927 57.9694C31.1634 55.9464 39.0025 54.393 49.0995 53.815C51.6643 53.6705 63.7843 53.7066 66.3492 53.8692ZM98.5908 63.4243C100.578 64.4358 101.336 65.6821 101.445 68.1386C101.517 69.6378 101.463 70.0352 101.065 71.1912C100.379 73.1419 99.5842 74.3702 97.8683 76.0861C96.1704 77.784 94.5448 78.94 91.8354 80.3489C90.1556 81.2159 87.085 82.3719 85.6219 82.6789L85.0439 82.8054L85.6942 81.3784C87.3198 77.8562 88.819 73.0335 89.4692 69.2223C89.6318 68.2831 89.7943 67.3258 89.8305 67.109C90.0833 65.953 92.4495 63.8939 94.2919 63.2256C95.5744 62.774 97.4529 62.8643 98.5908 63.4243ZM85.4052 66.3504C84.8091 70.9563 83.2738 76.2125 81.3591 80.1502C77.3312 88.4228 71.3525 93.6248 63.6217 95.5937C56.198 97.4902 48.2325 96.262 42.019 92.2521C34.4869 87.3752 29.6281 78.8858 27.6051 67.0729C27.4064 65.935 27.2799 64.9776 27.3161 64.9415C27.3522 64.9054 28.0205 65.086 28.7972 65.3389C30.5131 65.8988 33.7102 66.7116 36.1848 67.2174C50.1652 70.0351 72.2195 69.2585 83.2376 65.5376C84.484 65.1221 85.5135 64.797 85.5496 64.8151C85.5858 64.8331 85.5135 65.5376 85.4052 66.3504ZM43.5001 98.3753C47.3293 99.9467 50.8877 100.543 56.5051 100.543C62.7547 100.543 66.1686 99.8564 71.0996 97.6347C71.4789 97.4721 71.3344 98.1405 70.8648 98.7727C69.7088 100.29 66.0963 101.572 61.4181 102.096C58.9255 102.385 51.5198 102.241 49.551 101.861C46.354 101.247 44.1503 100.452 42.8137 99.459C41.9648 98.8088 41.1158 97.3638 41.748 97.6347C41.8564 97.6889 42.6512 98.014 43.5001 98.3753Z" fill="white"/>
<path d="M30.7748 62.0392C39.7616 56.5384 69.8592 55.9425 81.7111 62.0392C68.9503 66.3804 38.9124 66.3228 30.7748 62.0392Z" fill="#359397"/>
<path d="M43.4971 60.4455C42.1296 59.0042 40.6057 58.1934 38.7692 57.936C38.3394 57.8845 37.5709 57.8588 37.076 57.8974C33.6635 58.1162 31.1367 60.008 30.0166 63.1481L29.6519 64.1776L29.6128 68.3215L29.5737 72.4783H27.9196C26.539 72.4783 26.1743 72.5298 25.6793 72.7486C24.9239 73.0832 19.6619 78.218 19.3102 78.9773C19.0758 79.4663 19.0628 80.0197 19.0107 89.4658C18.9846 97.8823 18.9976 99.5038 19.1539 99.8899C19.4926 100.714 20.0917 101.396 20.769 101.769L21.4463 102.142L27.633 102.245C31.0325 102.296 35.0441 102.322 36.555 102.309L39.2902 102.271L39.9805 101.898C40.762 101.46 41.2439 100.894 41.5825 100.006C41.8039 99.4524 41.83 98.9762 41.83 96.1321L41.843 83.4816L41.842 83.4338C41.7649 79.8004 41.7634 79.734 41.4392 79.1317C40.9573 78.2438 35.9298 73.1475 35.2265 72.8386C34.8227 72.6585 34.2105 72.5813 32.9602 72.5169L31.2539 72.4397L31.306 68.566C31.3581 65.027 31.3842 64.6152 31.6447 63.843C32.2438 62.0413 33.5723 60.6386 35.2916 59.9822C36.3466 59.5833 38.3654 59.5189 39.3553 59.8407C40.5405 60.2396 41.1918 60.6386 42.0514 61.4879C43.3409 62.7491 43.9791 64.332 44.2396 66.8158H45.9969L45.8807 66.0179C45.542 63.4441 44.9038 61.9255 43.4971 60.4455Z" fill="black"/>
<path d="M23.7183 77.0155L20.944 79.7567V89.4344V99.125L21.3087 99.5239C21.5562 99.7942 21.8557 99.9615 22.2465 100.026C22.5721 100.09 26.4144 100.142 30.8037 100.155C39.4391 100.18 39.0353 100.206 39.5433 99.4853C39.8298 99.0864 39.8819 96.0878 39.7647 86.7833L39.6735 79.7824L36.9904 77.0927L34.3204 74.4159H32.7835H31.2335V75.5098C31.2335 76.5908 31.2335 76.6037 31.5591 76.6037C31.989 76.6037 32.536 77.1442 32.536 77.5689C32.536 77.7491 32.3927 78.0451 32.2104 78.2124C31.9369 78.4955 31.7806 78.5341 31.0121 78.5212C28.7849 78.4955 28.2378 78.2767 28.2378 77.4402C28.2378 76.9512 28.5504 76.6423 29.0844 76.5651L29.4752 76.5136L29.5143 75.4712L29.5533 74.4288L28.9281 74.3773C28.5895 74.3516 27.8992 74.3258 27.3912 74.313L26.4795 74.2872L23.7183 77.0155Z" fill="white"/>
<path fill-rule="evenodd" clip-rule="evenodd" d="M29.8621 85.7732C31.1328 83.9203 32.9637 82.9014 34.4404 82.3482C35.0542 82.1173 35.6855 81.936 36.3283 81.8061C36.5713 81.7572 36.8161 81.7176 37.062 81.6873L37.1072 81.6825L37.1192 81.6803L37.1242 81.6806L37.1266 81.6801L37.5912 81.6378L37.7536 82.0737L37.756 82.0794L37.7611 82.0934L37.7808 82.1455L37.845 82.3356C38.1632 83.3176 38.3873 84.3276 38.5144 85.3519C38.7358 87.1845 38.6749 89.581 37.3699 91.4825C36.0942 93.3413 34.296 94.3094 32.8458 94.8117C32.218 95.0294 31.5718 95.1899 30.9151 95.2912L30.7288 94.2967L34.492 88.8104L33.4826 88.1214L30.41 92.6013L29.3176 86.7694C29.4659 86.4192 29.6472 86.0863 29.8621 85.7732ZM28.4248 88.6408L29.2462 93.0265L26.9155 91.7886L26.341 92.8637L29.5335 94.5602L29.7104 95.5045C29.2721 95.592 28.8284 95.6494 28.3823 95.6763C27.2641 95.7407 25.7725 95.617 24.5207 94.7624C23.2573 93.8989 22.5471 92.3712 22.1531 91.1638C21.9178 90.4356 21.7455 89.6886 21.6379 88.931L21.6331 88.8922L21.6309 88.8802L21.6316 88.8776L21.5772 88.388L22.0425 88.2301L22.0473 88.2292L22.0577 88.2248L22.0928 88.2132L22.2233 88.1727C22.8819 87.9792 23.5557 87.8413 24.2375 87.7607C25.4273 87.6271 27.0326 87.6477 28.2238 88.4974L28.2808 88.5363L28.4248 88.6408Z" fill="#F29430"/>
</svg>
